<svg viewBox="0 0 233.78 225.18" fill="currentColor" xmlns="http://www.w3.org/2000/svg">
  <path d="M165.16,216.63l-95.86.08c-30.6.03-56.23-25.24-56.21-55.87l.06-96.54c.02-29.65,24.92-55.02,54.65-55.04l97.47-.05c30.44-.01,55.38,25.8,55.37,56.12l-.02,95.52c0,30.22-24.9,55.76-55.46,55.78ZM156.75,198.44c26.06-.52,45.88-22.14,45.9-47.63l.07-77.95c.02-23.91-20.26-45.32-44.37-45.34l-82.09-.07c-23.98-.02-44.87,20.88-44.86,44.86l.04,81.54c.01,24.3,21.42,44.64,45.55,44.63l79.75-.05Z"/>
  <g>
    <path d="M169.75,112.67c0,29.35-23.79,53.14-53.14,53.14s-53.14-23.79-53.14-53.14,23.79-53.14,53.14-53.14,53.14,23.79,53.14,53.14ZM151.59,112.88c0-19.46-15.78-35.24-35.24-35.24s-35.24,15.78-35.24,35.24,15.78,35.24,35.24,35.24,35.24-15.78,35.24-35.24Z"/>
    <circle cx="172.91" cy="56.76" r="12.61"/>
  </g>
</svg>
